<svg width="643" height="368" viewBox="0 0 643 368" fill="none" xmlns="http://www.w3.org/2000/svg">
<path d="M4.48 349V291.4H17.28L36.8 314.68L56.24 291.4H69.12V349H56.64V310.36L36.8 334.04L16.88 310.44V349H4.48ZM76.6988 349V291.4H88.9388V349H76.6988ZM95.8081 349V291.4H108.608L140.848 329.8V291.4H153.408V349H140.608L108.208 310.44V349H95.8081ZM162.531 349V291.4H208.211C210.397 291.4 212.371 291.933 214.131 293C215.944 294.067 217.384 295.507 218.451 297.32C219.571 299.08 220.131 301.053 220.131 303.24V337.16C220.131 339.293 219.571 341.267 218.451 343.08C217.384 344.893 215.944 346.333 214.131 347.4C212.371 348.467 210.397 349 208.211 349H162.531ZM174.851 336.52H207.571V303.88H174.851V336.52ZM240.769 349C238.636 349 236.663 348.467 234.849 347.4C233.036 346.333 231.596 344.893 230.529 343.08C229.463 341.267 228.929 339.293 228.929 337.16V331.8H241.329V336.52H273.969V326.44H240.769C238.636 326.44 236.663 325.907 234.849 324.84C233.036 323.773 231.596 322.36 230.529 320.6C229.463 318.787 228.929 316.787 228.929 314.6V303.24C228.929 301.053 229.463 299.08 230.529 297.32C231.596 295.507 233.036 294.067 234.849 293C236.663 291.933 238.636 291.4 240.769 291.4H274.689C276.823 291.4 278.769 291.933 280.529 293C282.343 294.067 283.783 295.507 284.849 297.32C285.969 299.08 286.529 301.053 286.529 303.24V308.6H273.969V303.88H241.329V313.96H274.689C276.823 313.96 278.769 314.493 280.529 315.56C282.343 316.627 283.783 318.067 284.849 319.88C285.969 321.64 286.529 323.613 286.529 325.8V337.16C286.529 339.293 285.969 341.267 284.849 343.08C283.783 344.893 282.343 346.333 280.529 347.4C278.769 348.467 276.823 349 274.689 349H240.769ZM332.801 349C330.667 349 328.694 348.467 326.881 347.4C325.067 346.333 323.627 344.893 322.561 343.08C321.494 341.267 320.961 339.293 320.961 337.16V331.8H333.361V336.52H366.001V326.44H332.801C330.667 326.44 328.694 325.907 326.881 324.84C325.067 323.773 323.627 322.36 322.561 320.6C321.494 318.787 320.961 316.787 320.961 314.6V303.24C320.961 301.053 321.494 299.08 322.561 297.32C323.627 295.507 325.067 294.067 326.881 293C328.694 291.933 330.667 291.4 332.801 291.4H366.721C368.854 291.4 370.801 291.933 372.561 293C374.374 294.067 375.814 295.507 376.881 297.32C378.001 299.08 378.561 301.053 378.561 303.24V308.6H366.001V303.88H333.361V313.96H366.721C368.854 313.96 370.801 314.493 372.561 315.56C374.374 316.627 375.814 318.067 376.881 319.88C378.001 321.64 378.561 323.613 378.561 325.8V337.16C378.561 339.293 378.001 341.267 376.881 343.08C375.814 344.893 374.374 346.333 372.561 347.4C370.801 348.467 368.854 349 366.721 349H332.801ZM387.371 349V291.48H433.051C435.237 291.48 437.211 292.013 438.971 293.08C440.784 294.147 442.224 295.587 443.291 297.4C444.411 299.213 444.971 301.187 444.971 303.32V318.2C444.971 320.333 444.411 322.307 443.291 324.12C442.224 325.933 440.784 327.373 438.971 328.44C437.211 329.507 435.237 330.04 433.051 330.04L399.771 330.12V349H387.371ZM399.771 317.56H432.411V303.88H399.771V317.56ZM450.812 349V303.24C450.812 301.053 451.345 299.08 452.412 297.32C453.479 295.507 454.919 294.067 456.732 293C458.545 291.933 460.519 291.4 462.652 291.4H496.492C498.679 291.4 500.652 291.933 502.412 293C504.225 294.067 505.665 295.507 506.732 297.32C507.852 299.08 508.412 301.053 508.412 303.24V349H495.852V330.44H463.212V349H450.812ZM463.212 317.96H495.852V303.88H463.212V317.96ZM562.247 349L545.527 329.08H561.767L575.047 344.76V349H562.247ZM517.527 349V291.48H563.207C565.394 291.48 567.367 292.013 569.127 293.08C570.94 294.147 572.38 295.587 573.447 297.4C574.567 299.213 575.127 301.187 575.127 303.32V318.2C575.127 320.333 574.567 322.307 573.447 324.12C572.38 325.933 570.94 327.373 569.127 328.44C567.367 329.507 565.394 330.04 563.207 330.04L529.927 330.12V349H517.527ZM529.927 317.56H562.567V303.88H529.927V317.56ZM583.623 349V291.4H596.103V313.96H607.383L626.263 291.4H639.223V295.72L618.663 320.2L639.223 344.68V349H626.263L607.383 326.44H596.103V349H583.623Z" fill="url(#paint0_linear_155_34)"/>
<path d="M465.183 67.5739C457.514 51.5157 441.087 41.1352 423.345 41.1352C421.672 41.1352 420.016 41.2245 418.371 41.4028C416.163 22.3308 402.229 5.70067 382.732 1.19299C379.306 0.399702 375.798 0 372.306 0C367.966 0 363.646 0.617906 359.468 1.83415C340.707 7.3003 327.605 25.2588 327.605 45.5075V48.7165V83.8435V157.181V183.512V195.307C327.605 219.224 345.664 239.238 368.717 240.882C369.797 240.959 370.893 241 371.969 241C375.428 241 378.892 240.6 382.27 239.821C401.758 235.404 415.757 218.841 418.046 199.794C419.752 199.986 421.473 200.079 423.207 200.079C440.88 200.079 457.274 189.765 464.984 173.798C473.721 155.694 469.556 134.355 456.133 120.679C469.613 107.053 473.864 85.7205 465.183 67.5739ZM456.271 169.557C449.926 182.7 436.828 190.36 423.203 190.36C418.087 190.36 412.898 189.279 407.961 187.007C411.956 206.617 399.614 225.925 380.093 230.351C377.377 230.979 374.629 231.277 371.965 231.277C371.105 231.277 370.248 231.248 369.395 231.187C351.076 229.882 337.272 213.759 337.272 195.307V183.512V157.181V83.8403V48.7133V45.5042C337.272 29.846 347.191 15.526 362.156 11.1668C365.412 10.2185 368.819 9.71932 372.298 9.71932C375.022 9.71932 377.787 10.0268 380.556 10.6647C400.048 15.1692 412.31 34.5356 408.229 54.1431C413.13 51.9158 418.274 50.8545 423.341 50.8545C437.023 50.8545 450.153 58.5717 456.462 71.7843C465.134 89.9178 457.713 111.631 439.906 120.643C457.684 129.738 465.001 151.477 456.271 169.557Z" fill="url(#paint1_linear_155_34)"/>
<path d="M213.448 116.173H242.125V146.647H275.313V140.132H272.432H248.655V113.27V109.662H245.461H219.979V91.2678H226.806V88.5836V70.4814H205.969V91.2678H213.448V116.173ZM212.496 84.7531V76.9961H220.272V84.7531H212.496Z" fill="url(#paint2_linear_155_34)"/>
<path d="M219.89 174.39V152.172H226.673V149.693V131.868H205.969V152.172H213.401V180.75H245.756V177.57V174.39H243.579H219.89ZM212.458 145.809V138.232H220.184V145.809H212.458Z" fill="url(#paint3_linear_155_34)"/>
<path d="M287.992 127.32H284.763V135.651V201.186H275.465V194.045H262.113H254.848V214.853H275.465V207.708H291.225V127.32H287.992ZM269.003 208.332H261.309V200.567H269.003V208.332Z" fill="url(#paint4_linear_155_34)"/>
<path d="M270.994 55.3479V48.4438H282.465V77.7765V81.8487H288.952V42.1443H270.994V35.2402H250.301V55.3479H264.61H270.994ZM264.511 49.048H256.787V41.5429H264.511V49.048Z" fill="url(#paint5_linear_155_34)"/>
<path d="M381.368 152.33H378.292V157.937V200.952H366.572V193.681H358.672H346.93V214.854H366.572V207.587H384.444V152.33H381.368ZM360.42 208.218H353.09V200.317H360.42V208.218Z" fill="url(#paint6_linear_155_34)"/>
<path d="M428.676 98.6765V73.0745L374.758 73.373H357.926V44.1597H370.921V51.1992H380.633H391.264V30.6934H370.917V37.7329H351.549V138.645H346.93V159.151H367.277V138.645H357.926V136.869V79.7962H394.635V114.479H388.848V115.535V132.563H406.795V114.479H401.012V79.5013H405.23H422.303V94.911V98.6765H416.519V116.757H434.463V98.6765H428.676ZM377.294 37.1201H384.887V44.7724H377.294V37.1201ZM360.904 145.072V152.725H353.311V145.072H360.904ZM400.418 126.14H395.225V120.909H400.418V126.14ZM428.082 110.33H422.893V105.1H428.082V110.33Z" fill="url(#paint7_linear_155_34)"/>
<path d="M416.649 150.869V153.591H422.392V171.971H400.565H398.086V175.223V178.476H428.721V153.591H434.463V135.278H416.649V150.869ZM422.978 141.784H428.135V147.082H422.978V141.784Z" fill="url(#paint8_linear_155_34)"/>
<path d="M283.225 1.81793C279.047 0.595103 274.738 0 270.396 0C266.909 0 263.389 0.396453 259.968 1.18978C240.462 5.68462 226.547 22.3416 224.311 41.4116C222.699 41.2134 221.021 41.1469 219.344 41.1469C201.614 41.1469 185.199 51.5246 177.502 67.5869C168.851 85.7315 173.094 107.049 186.581 120.665C173.16 134.348 168.982 155.698 177.732 173.809C185.429 189.774 201.811 200.086 219.508 200.086C221.219 200.086 222.962 199.984 224.64 199.788C226.942 218.856 240.955 235.416 260.462 239.842C263.817 240.604 267.271 241 270.725 241C271.81 241 272.896 240.967 273.981 240.902C297.04 239.246 315.099 219.219 315.099 195.326V45.5096C315.099 25.2502 301.974 7.30391 283.225 1.81793ZM305.395 195.326C305.395 213.766 291.613 229.893 273.291 231.182C272.435 231.252 271.58 231.284 270.725 231.284C268.06 231.284 265.33 230.987 262.6 230.358C243.094 225.929 230.725 206.628 234.738 187.029C229.804 189.277 224.607 190.366 219.508 190.366C205.857 190.366 192.765 182.702 186.416 169.546C177.699 151.467 185.002 129.754 202.798 120.632C184.969 111.642 177.568 89.9286 186.252 71.7844C192.535 58.5642 205.659 50.8639 219.344 50.8639C224.41 50.8639 229.574 51.9215 234.475 54.1359C230.396 34.5373 242.633 15.1699 262.139 10.675C264.902 10.0143 267.666 9.71651 270.396 9.71651C273.883 9.71651 277.271 10.2125 280.527 11.171C295.494 15.5333 305.395 29.8442 305.395 45.5096V102.785H280.725V95.6793H260.133V116.369H280.725V109.263H305.395V195.326ZM274.278 102.157V109.891H266.613V102.157H274.278Z" fill="url(#paint9_linear_155_34)"/>
<defs>
<linearGradient id="paint0_linear_155_34" x1="26.188" y1="318" x2="613.469" y2="318" gradientUnits="userSpaceOnUse">
<stop stop-color="#7748CE"/>
<stop offset="0.463542" stop-color="#E43F9E"/>
<stop offset="1" stop-color="#F64F56"/>
</linearGradient>
<linearGradient id="paint1_linear_155_34" x1="398.655" y1="0" x2="398.655" y2="241" gradientUnits="userSpaceOnUse">
<stop stop-color="#8147CA"/>
<stop offset="0.401042" stop-color="#DF3FA2"/>
<stop offset="1" stop-color="#F64F52"/>
</linearGradient>
<linearGradient id="paint2_linear_155_34" x1="240.641" y1="70.4814" x2="240.641" y2="146.647" gradientUnits="userSpaceOnUse">
<stop stop-color="#8147CA"/>
<stop offset="0.401042" stop-color="#DF3FA2"/>
<stop offset="1" stop-color="#F64F52"/>
</linearGradient>
<linearGradient id="paint3_linear_155_34" x1="225.863" y1="131.868" x2="225.863" y2="180.75" gradientUnits="userSpaceOnUse">
<stop stop-color="#8147CA"/>
<stop offset="0.401042" stop-color="#DF3FA2"/>
<stop offset="1" stop-color="#F64F52"/>
</linearGradient>
<linearGradient id="paint4_linear_155_34" x1="273.036" y1="127.32" x2="273.036" y2="214.853" gradientUnits="userSpaceOnUse">
<stop stop-color="#8147CA"/>
<stop offset="0.401042" stop-color="#DF3FA2"/>
<stop offset="1" stop-color="#F64F52"/>
</linearGradient>
<linearGradient id="paint5_linear_155_34" x1="269.626" y1="35.2402" x2="269.626" y2="81.8487" gradientUnits="userSpaceOnUse">
<stop stop-color="#8147CA"/>
<stop offset="0.401042" stop-color="#DF3FA2"/>
<stop offset="1" stop-color="#F64F52"/>
</linearGradient>
<linearGradient id="paint6_linear_155_34" x1="365.687" y1="152.33" x2="365.687" y2="214.854" gradientUnits="userSpaceOnUse">
<stop stop-color="#8147CA"/>
<stop offset="0.401042" stop-color="#DF3FA2"/>
<stop offset="1" stop-color="#F64F52"/>
</linearGradient>
<linearGradient id="paint7_linear_155_34" x1="390.696" y1="30.6934" x2="390.696" y2="159.151" gradientUnits="userSpaceOnUse">
<stop stop-color="#8147CA"/>
<stop offset="0.401042" stop-color="#DF3FA2"/>
<stop offset="1" stop-color="#F64F52"/>
</linearGradient>
<linearGradient id="paint8_linear_155_34" x1="416.275" y1="135.278" x2="416.275" y2="178.476" gradientUnits="userSpaceOnUse">
<stop stop-color="#8147CA"/>
<stop offset="0.401042" stop-color="#DF3FA2"/>
<stop offset="1" stop-color="#F64F52"/>
</linearGradient>
<linearGradient id="paint9_linear_155_34" x1="244.05" y1="0" x2="244.05" y2="241" gradientUnits="userSpaceOnUse">
<stop stop-color="#8147CA"/>
<stop offset="0.401042" stop-color="#DF3FA2"/>
<stop offset="1" stop-color="#F64F52"/>
</linearGradient>
</defs>
</svg>
